<svg xmlns="http://www.w3.org/2000/svg" width="397" height="109" fill="none"><g clip-path="url(#a)"><path fill="#7800C8" d="M334.347 96.708c.364-.259-.01.009 0 0Zm62.515-16.172H342.9c-7.457 0-11.052 1.214-13.666 3.426-.915.667-5.341 4.312-10.129 7.763-.851.312-.947-.299-.947-.31 0 0 .052-3.253.007-5.288-.084-3.979-2.066-5.591-7.404-5.591h-54.953v9.959a3.554 3.554 0 0 0 3.549 3.552s39.865.023 41.613-.007c4.841-.074 4.718 3.278 4.718 3.278v4.822c0 2.872 2.353 6.829 6.853 6.836 4.541.005 7.28-2.01 7.28-2.01 11.027-7.799 13.896-9.82 14.527-10.259 0 0 .004-.007.02-.02 3.601-2.69 4.678-2.593 7.679-2.642h51.272a3.552 3.552 0 0 0 3.544-3.552v-9.957h-.001Z"/><path fill="#fff" d="m26.41 55.385-.189.004c-.781.036-1.674.064-2.618.064-2.405 0-3.386-.711-3.386-2.448V34.257h9.276V22.67h-9.276V6.368H6.755V22.67H.012v11.587h6.743v22.872c0 9.069 6.575 10.291 13.01 10.291 3.548 0 9.281-.542 9.522-.562l.583-.053V58.75c-.048-1.164-.832-3.365-3.46-3.365ZM68.394 39.53c1.149-4.027 4.571-6.584 8.923-6.584 4.273 0 7.74 2.67 8.678 6.584H68.394Zm8.922-17.985c-13.293 0-22.939 9.763-22.939 23.217 0 13.454 9.726 23.22 23.126 23.22 9.829 0 17.423-4.411 21.383-12.424l.383-.772-13.627-2.372-.234.332c-1.565 2.222-4.451 3.549-7.718 3.549-4.515 0-8.145-2.978-9.07-7.328h31.823v-1.112c0-19.399-11.949-26.31-23.127-26.31ZM129.961 21.545c-4.683 0-9.082 1.805-12.334 5.012.009-.134.017-.274.023-.414-.131-2.75-2.346-3.477-3.507-3.474h-9.647V66.86h13.466V38.625c2.383-2.879 5.372-4.461 8.44-4.461 4.17 0 6.662 2.632 6.662 7.038v25.66h13.466v-28.75c.001-10.066-6.502-16.567-16.569-16.567ZM309.193 21.545c-5.686 0-10.622 2.489-14.332 7.214-2.662-4.661-7.544-7.214-13.863-7.214-4.444 0-8.806 1.824-12.007 4.957a8.746 8.746 0 0 0-.004-.539c-.439-3.191-3.153-3.294-3.523-3.294h-9.655V66.86h13.463V38.625c2.383-2.879 5.309-4.461 8.257-4.461 4.056 0 6.479 2.564 6.479 6.852v25.846h13.461V38.625c2.381-2.879 5.307-4.461 8.26-4.461 1.518 0 6.476.494 6.476 6.852v25.846h13.467v-28.75c-.003-10.066-6.471-16.567-16.479-16.567ZM338.853 0c-4.643 0-8.416 3.817-8.416 8.511 0 4.721 3.695 8.418 8.416 8.418 4.772 0 8.511-3.697 8.511-8.418 0-4.694-3.819-8.511-8.511-8.511ZM346.166 26.143c-.132-2.75-2.347-3.475-3.507-3.473h-9.96v44.189h13.468l-.001-.644c-.023-13.425-.049-39.065 0-40.072ZM374.231 55.896c-6.137 0-10.423-4.577-10.423-11.128 0-6.608 4.286-11.226 10.423-11.226 6.142 0 10.429 4.618 10.429 11.226 0 6.448-4.388 11.128-10.429 11.128Zm22.599 10.321c-.022-13.428-.049-39.067 0-40.073-.133-2.75-2.347-3.476-3.508-3.475l-9.283.031v3.4c-3.039-3.026-7.044-4.555-11.932-4.555-12.23 0-21.45 9.983-21.45 23.224 0 13.235 9.22 23.216 21.45 23.216 4.928 0 9.022-1.619 12.201-4.814l.021.564h.035c.311 2.441 2.306 3.117 3.374 3.125h9.094l-.002-.643ZM225.719 55.896c-6.137 0-10.426-4.576-10.426-11.129 0-6.608 4.289-11.224 10.426-11.224 6.138 0 10.424 4.615 10.424 11.224 0 6.45-4.385 11.129-10.424 11.129Zm22.597-29.752c-.127-2.748-2.347-3.476-3.509-3.474l-9.28.028V26.1c-3.041-3.026-7.045-4.555-11.932-4.555-12.229 0-21.451 9.983-21.451 23.222s9.222 23.217 21.451 23.217c4.929 0 9.021-1.617 12.193-4.813l.026.565h.037c.314 2.439 2.303 3.115 3.369 3.123h9.096l-.001-.643c-.02-13.426-.048-39.067.001-40.072ZM174.931 55.832c-5.881 0-10.319-4.8-10.319-11.16 0-6.412 4.34-11.066 10.319-11.066 5.978 0 10.315 4.655 10.315 11.066.001 6.36-4.433 11.16-10.315 11.16Zm23.5-46.079-.001-.197-.012-.005c-.227-2.374-2.076-3.131-3.336-3.229l-10.114-.047v14.323c0 1.918.066 3.976.122 5.616.004.17.012.334.016.493-2.431-2.77-6.783-5.255-12.984-5.255-12.368 0-21.344 9.764-21.344 23.219 0 13.237 9.219 23.225 21.441 23.225 5.698 0 10.227-2.455 12.749-5.275v.603c0 2.11 1.251 3.401 3.447 3.548.523.025 9.377-.003 9.378 0l.642-.003V9.957l.001-.134-.001-.036a.21.21 0 0 1-.004-.034ZM42.466 0c-4.64 0-8.417 3.817-8.417 8.511 0 4.721 3.699 8.418 8.417 8.418 4.772 0 8.511-3.697 8.511-8.418C50.977 3.817 47.158 0 42.466 0ZM49.779 26.143c-.131-2.75-2.347-3.475-3.507-3.473h-9.96v44.189h13.47l-.002-.644c-.023-13.425-.051-39.065-.001-40.072Z"/></g><defs><clipPath id="a"><path fill="#fff" d="M0 0h396.85v108.977H0z"/></clipPath></defs></svg>